<svg xmlns="http://www.w3.org/2000/svg" xmlns:xlink="http://www.w3.org/1999/xlink" width="674" height="340" contentScriptType="application/ecmascript" contentStyleType="text/css" style="width:674px;height:340px" preserveAspectRatio="none" version="1.1" viewBox="0 0 674 340" zoomAndPan="magnify"><defs><filter id="f1qy0igqb1fkov" width="300%" height="300%" x="-1" y="-1"><feGaussianBlur result="blurOut" stdDeviation="2"/><feColorMatrix in="blurOut" result="blurOut2" type="matrix" values="0 0 0 0 0 0 0 0 0 0 0 0 0 0 0 0 0 0 .4 0"/><feOffset dx="4" dy="4" in="blurOut2" result="blurOut3"/><feBlend in="SourceGraphic" in2="blurOut3" mode="normal"/></filter></defs><g><line style="stroke:#a80036;stroke-width:1" x1="33" x2="33" y1="38.297" y2="177.828"/><line style="stroke:#a80036;stroke-width:1;stroke-dasharray:1,4" x1="33" x2="33" y1="177.828" y2="218.633"/><line style="stroke:#a80036;stroke-width:1" x1="33" x2="33" y1="218.633" y2="299.898"/><line style="stroke:#a80036;stroke-width:1" x1="231.5" x2="231.5" y1="38.297" y2="177.828"/><line style="stroke:#a80036;stroke-width:1;stroke-dasharray:1,4" x1="231.5" x2="231.5" y1="177.828" y2="218.633"/><line style="stroke:#a80036;stroke-width:1" x1="231.5" x2="231.5" y1="218.633" y2="299.898"/><line style="stroke:#a80036;stroke-width:1" x1="582.5" x2="582.5" y1="38.297" y2="177.828"/><line style="stroke:#a80036;stroke-width:1;stroke-dasharray:1,4" x1="582.5" x2="582.5" y1="177.828" y2="218.633"/><line style="stroke:#a80036;stroke-width:1" x1="582.5" x2="582.5" y1="218.633" y2="299.898"/><rect style="stroke:#a80036;stroke-width:1.5" width="46" height="30.297" x="8" y="3" fill="#FEFECE" filter="url(#f1qy0igqb1fkov)"/><text x="15" y="22.995" fill="#000" font-family="sans-serif" font-size="14" lengthAdjust="spacingAndGlyphs" textLength="32">Host</text><rect style="stroke:#a80036;stroke-width:1.5" width="46" height="30.297" x="8" y="298.898" fill="#FEFECE" filter="url(#f1qy0igqb1fkov)"/><text x="15" y="318.894" fill="#000" font-family="sans-serif" font-size="14" lengthAdjust="spacingAndGlyphs" textLength="32">Host</text><rect style="stroke:#a80036;stroke-width:1.5" width="91" height="30.297" x="184.5" y="3" fill="#FEFECE" filter="url(#f1qy0igqb1fkov)"/><text x="191.5" y="22.995" fill="#000" font-family="sans-serif" font-size="14" lengthAdjust="spacingAndGlyphs" textLength="77">Agreement</text><rect style="stroke:#a80036;stroke-width:1.5" width="91" height="30.297" x="184.5" y="298.898" fill="#FEFECE" filter="url(#f1qy0igqb1fkov)"/><text x="191.5" y="318.894" fill="#000" font-family="sans-serif" font-size="14" lengthAdjust="spacingAndGlyphs" textLength="77">Agreement</text><rect style="stroke:#a80036;stroke-width:1.5" width="127" height="30.297" x="517.5" y="3" fill="#FEFECE" filter="url(#f1qy0igqb1fkov)"/><text x="524.5" y="22.995" fill="#000" font-family="sans-serif" font-size="14" lengthAdjust="spacingAndGlyphs" textLength="113">SuperfluidToken</text><rect style="stroke:#a80036;stroke-width:1.5" width="127" height="30.297" x="517.5" y="298.898" fill="#FEFECE" filter="url(#f1qy0igqb1fkov)"/><text x="524.5" y="318.894" fill="#000" font-family="sans-serif" font-size="14" lengthAdjust="spacingAndGlyphs" textLength="113">SuperfluidToken</text><polygon fill="#A80036" points="220 65.43 230 69.43 220 73.43 224 69.43" style="stroke:#a80036;stroke-width:1"/><line style="stroke:#a80036;stroke-width:1" x1="33" x2="226" y1="69.43" y2="69.43"/><text x="40" y="64.364" fill="#000" font-family="sans-serif" font-size="13" lengthAdjust="spacingAndGlyphs" textLength="175">callAgreement(updateFlow)</text><polygon fill="#A80036" points="44 94.563 34 98.563 44 102.563 40 98.563" style="stroke:#a80036;stroke-width:1"/><line style="stroke:#a80036;stroke-width:1" x1="38" x2="231" y1="98.563" y2="98.563"/><text x="50" y="93.497" fill="#000" font-family="sans-serif" font-size="13" lengthAdjust="spacingAndGlyphs" textLength="143">authorizeTokenAccess</text><line style="stroke:#a80036;stroke-width:1" x1="232" x2="274" y1="127.695" y2="127.695"/><line style="stroke:#a80036;stroke-width:1" x1="274" x2="274" y1="127.695" y2="140.695"/><line style="stroke:#a80036;stroke-width:1" x1="233" x2="274" y1="140.695" y2="140.695"/><polygon fill="#A80036" points="243 136.695 233 140.695 243 144.695 239 140.695" style="stroke:#a80036;stroke-width:1"/><text x="239" y="122.629" fill="#000" font-family="sans-serif" font-size="13" lengthAdjust="spacingAndGlyphs" textLength="144">some agreement logic</text><polygon fill="#A80036" points="571 165.828 581 169.828 571 173.828 575 169.828" style="stroke:#a80036;stroke-width:1"/><line style="stroke:#a80036;stroke-width:1" x1="232" x2="577" y1="169.828" y2="169.828"/><text x="239" y="164.762" fill="#000" font-family="sans-serif" font-size="13" lengthAdjust="spacingAndGlyphs" textLength="327">(extCall) agreementDataOps | agreementStateOps</text><text x="243.5" y="202.039" fill="#000" font-family="sans-serif" font-size="11" lengthAdjust="spacingAndGlyphs" textLength="129">A different control flow</text><line style="stroke:#a80036;stroke-width:1" x1="583" x2="625" y1="239.766" y2="239.766"/><line style="stroke:#a80036;stroke-width:1" x1="625" x2="625" y1="239.766" y2="252.766"/><line style="stroke:#a80036;stroke-width:1" x1="584" x2="625" y1="252.766" y2="252.766"/><polygon fill="#A80036" points="594 248.766 584 252.766 594 256.766 590 252.766" style="stroke:#a80036;stroke-width:1"/><text x="590" y="234.7" fill="#000" font-family="sans-serif" font-size="13" lengthAdjust="spacingAndGlyphs" textLength="72">updateFlow</text><polygon fill="#A80036" points="243 277.898 233 281.898 243 285.898 239 281.898" style="stroke:#a80036;stroke-width:1"/><line style="stroke:#a80036;stroke-width:1" x1="237" x2="582" y1="281.898" y2="281.898"/><text x="249" y="276.832" fill="#000" font-family="sans-serif" font-size="13" lengthAdjust="spacingAndGlyphs" textLength="165">(delegateCall) updateFlow</text></g></svg>